<svg width="40" height="40" viewBox="0 0 40 40" fill="none" xmlns="http://www.w3.org/2000/svg">
<g clip-path="url(#clip0_1_648)">
<path d="M39.9938 19.7464C39.9286 18.4433 39.3566 17.2173 38.3999 16.3301C37.4432 15.4429 36.1776 14.9648 34.8732 14.9979C33.5689 15.031 32.3292 15.5726 31.4187 16.5072C30.5082 17.4418 29.9991 18.6952 30 19.9999V28.3333C30 27.8913 29.8244 27.4673 29.5119 27.1548C29.1993 26.8422 28.7754 26.6666 28.3334 26.6666H11.6667C11.2247 26.6666 10.8007 26.8422 10.4882 27.1548C10.1756 27.4673 10 27.8913 10 28.3333V19.9999C9.99996 19.0833 9.74791 18.1843 9.27143 17.4012C8.79495 16.6182 8.11237 15.9811 7.2983 15.5598C6.48422 15.1385 5.56999 14.949 4.65552 15.0122C3.74105 15.0753 2.86154 15.3886 2.11312 15.9179C1.3647 16.4471 0.776167 17.1719 0.411857 18.0131C0.0475467 18.8542 -0.0785237 19.7793 0.0474254 20.6873C0.173374 21.5952 0.546496 22.4511 1.12601 23.1613C1.70552 23.8715 2.46912 24.4088 3.33334 24.7143V33.3333C3.33334 33.7753 3.50893 34.1992 3.8215 34.5118C4.13406 34.8244 4.55798 34.9999 5.00001 34.9999H6.66668V38.3333H10V34.9999H30V38.3333H33.3334V34.9999H35C35.4421 34.9999 35.866 34.8244 36.1786 34.5118C36.4911 34.1992 36.6667 33.7753 36.6667 33.3333V24.7143C37.6824 24.3551 38.5549 23.6774 39.1544 22.7823C39.7539 21.8872 40.0483 20.8224 39.9938 19.7464Z" fill="#029FAE"/>
<path d="M11.6667 19.9999V24.9999H28.3334V19.9999C28.3353 18.5224 28.8271 17.0872 29.7319 15.919C30.6366 14.7508 31.9032 13.9157 33.3334 13.5443V9.99994C33.3309 7.79057 32.4521 5.67239 30.8899 4.11013C29.3276 2.54786 27.2094 1.66909 25 1.66661H15C12.7907 1.66909 10.6725 2.54786 9.11023 4.11013C7.54797 5.67239 6.6692 7.79057 6.66672 9.99994V13.5443C8.09686 13.9157 9.36347 14.7508 10.2682 15.919C11.173 17.0872 11.6648 18.5224 11.6667 19.9999V19.9999ZM23.3334 8.33328C23.663 8.33328 23.9852 8.43102 24.2593 8.61416C24.5334 8.7973 24.747 9.05759 24.8732 9.36214C24.9993 9.66668 25.0323 10.0018 24.968 10.3251C24.9037 10.6484 24.745 10.9454 24.5119 11.1785C24.2788 11.4115 23.9818 11.5703 23.6585 11.6346C23.3352 11.6989 23.0001 11.6659 22.6956 11.5397C22.391 11.4136 22.1307 11.2 21.9476 10.9259C21.7645 10.6518 21.6667 10.3296 21.6667 9.99994C21.6667 9.55792 21.8423 9.13399 22.1549 8.82143C22.4674 8.50887 22.8914 8.33328 23.3334 8.33328V8.33328ZM23.3334 13.3333C23.663 13.3333 23.9852 13.431 24.2593 13.6142C24.5334 13.7973 24.747 14.0576 24.8732 14.3621C24.9993 14.6667 25.0323 15.0018 24.968 15.3251C24.9037 15.6484 24.745 15.9454 24.5119 16.1785C24.2788 16.4115 23.9818 16.5703 23.6585 16.6346C23.3352 16.6989 23.0001 16.6659 22.6956 16.5397C22.391 16.4136 22.1307 16.2 21.9476 15.9259C21.7645 15.6518 21.6667 15.3296 21.6667 14.9999C21.6667 14.5579 21.8423 14.134 22.1549 13.8214C22.4674 13.5089 22.8914 13.3333 23.3334 13.3333V13.3333ZM16.6667 8.33328C16.9964 8.33328 17.3186 8.43102 17.5927 8.61416C17.8667 8.7973 18.0804 9.05759 18.2065 9.36214C18.3327 9.66668 18.3657 10.0018 18.3014 10.3251C18.237 10.6484 18.0783 10.9454 17.8452 11.1785C17.6121 11.4115 17.3152 11.5703 16.9919 11.6346C16.6686 11.6989 16.3335 11.6659 16.0289 11.5397C15.7244 11.4136 15.4641 11.2 15.2809 10.9259C15.0978 10.6518 15 10.3296 15 9.99994C15 9.55792 15.1756 9.13399 15.4882 8.82143C15.8008 8.50887 16.2247 8.33328 16.6667 8.33328V8.33328ZM16.6667 13.3333C16.9964 13.3333 17.3186 13.431 17.5927 13.6142C17.8667 13.7973 18.0804 14.0576 18.2065 14.3621C18.3327 14.6667 18.3657 15.0018 18.3014 15.3251C18.237 15.6484 18.0783 15.9454 17.8452 16.1785C17.6121 16.4115 17.3152 16.5703 16.9919 16.6346C16.6686 16.6989 16.3335 16.6659 16.0289 16.5397C15.7244 16.4136 15.4641 16.2 15.2809 15.9259C15.0978 15.6518 15 15.3296 15 14.9999C15 14.5579 15.1756 14.134 15.4882 13.8214C15.8008 13.5089 16.2247 13.3333 16.6667 13.3333V13.3333Z" fill="#029FAE"/>
</g>
<defs>
<clipPath id="clip0_1_648">
<rect width="40" height="40" fill="white"/>
</clipPath>
</defs>
</svg>
