<svg width="22" height="22" viewBox="0 0 22 22" fill="none" xmlns="http://www.w3.org/2000/svg">
<path fill-rule="evenodd" clip-rule="evenodd" d="M10.9862 14.0672C7.44053 14.0672 4.4137 14.6034 4.4137 16.7503C4.4137 18.8971 7.42128 19.4526 10.9862 19.4526C14.5309 19.4526 17.5587 18.9154 17.5587 16.7695C17.5587 14.6236 14.5502 14.0672 10.9862 14.0672V14.0672Z" stroke="#272343" stroke-width="1.5" stroke-linecap="round" stroke-linejoin="round"/>
<path fill-rule="evenodd" clip-rule="evenodd" d="M10.9862 11.0055C11.8195 11.0055 12.634 10.7584 13.3268 10.2955C14.0197 9.83255 14.5597 9.17457 14.8785 8.40475C15.1974 7.63492 15.2808 6.78783 15.1183 5.97058C14.9557 5.15334 14.5545 4.40266 13.9653 3.81346C13.3761 3.22426 12.6254 2.82301 11.8081 2.66045C10.9909 2.49789 10.1438 2.58132 9.37397 2.9002C8.60415 3.21907 7.94617 3.75906 7.48324 4.45188C7.02031 5.14471 6.77322 5.95925 6.77322 6.7925C6.76932 7.90581 7.20779 8.97508 7.99218 9.76515C8.77657 10.5552 9.84266 11.0014 10.956 11.0055H10.9862Z" stroke="#272343" stroke-width="1.429" stroke-linecap="round" stroke-linejoin="round"/>
</svg>
